<svg id="layer" xmlns="http://www.w3.org/2000/svg" xmlns:xlink="http://www.w3.org/1999/xlink" viewBox="0 0 25 16.71"><defs><style>.cls-1{fill:none;}.cls-2{fill:#006bb6;}.cls-3{clip-path:url(#clip-path);}.cls-4{fill:url(#linear-gradient);}.cls-5{fill:#fff;}</style><clipPath id="clip-path" transform="translate(-308.4 -236.83)"><path class="cls-1" d="M320.92,248.94c1.64-2.41,3.82-5.11,3.82-5.11a1.37,1.37,0,0,1-.87-.76,4,4,0,0,1-.18-1.24c0-.22,0-1.31,0-1.31a2.47,2.47,0,0,1-2.78-1.57,2.46,2.46,0,0,1-2.77,1.57s0,1.1,0,1.31a3.71,3.71,0,0,1-.19,1.24,1.38,1.38,0,0,1-.86.76s2.18,2.71,3.83,5.11h0"/></clipPath><linearGradient id="linear-gradient" x1="-971.44" y1="219.1" x2="-971.18" y2="219.1" gradientTransform="matrix(0, 24.88, 24.88, 0, -5438.54, 24172.7)" gradientUnits="userSpaceOnUse"><stop offset="0" stop-color="#f3d32b"/><stop offset="0.06" stop-color="#ead12e"/><stop offset="0.15" stop-color="#d3cc37"/><stop offset="0.26" stop-color="#adc346"/><stop offset="0.28" stop-color="#a7c248"/><stop offset="0.41" stop-color="#8abd4e"/><stop offset="0.54" stop-color="#69b755"/><stop offset="0.57" stop-color="#5fb555"/><stop offset="0.68" stop-color="#42af55"/><stop offset="0.79" stop-color="#2eaa55"/><stop offset="0.9" stop-color="#21a855"/><stop offset="1" stop-color="#1da755"/></linearGradient></defs><path class="cls-2" d="M320.9,250.87h0l.05.07c.68,1.06,1.2,1.91,1.42,2.25a2,2,0,0,0,.17.24.31.31,0,0,0,.39.06.85.85,0,0,0,.13-.12c.22-.31.58-.79,1-1.39a75.46,75.46,0,0,1,4.93-5.9c1.21-1.28,2.48-2.6,3.34-3.33s1-.73,1-.73h-3.12a4.61,4.61,0,0,0-2.91,1.27,8.82,8.82,0,0,0-1.12,1.19c-1.26,1.61-4.4,5.93-4.4,5.93s-.21-.32-.31-.5c.58-.89,1.23-1.83,1.86-2.73a43,43,0,0,1,2.9-3.72,7.56,7.56,0,0,1,.73-.73,2.62,2.62,0,0,1-1.34.4c-.22,0-1.15,0-1.09-1.26v-2.39s-2.85,1.51-3.68-2.58a.38.38,0,0,1,0-.08v.08c-.83,4.09-3.69,2.58-3.69,2.58v2.38c.07,1.24-.86,1.26-1.09,1.27a2.57,2.57,0,0,1-1.33-.4,7.56,7.56,0,0,1,.73.73,42.81,42.81,0,0,1,2.89,3.71c.63.9,1.28,1.85,1.87,2.74-.11.16-.21.33-.31.5,0,0-3.15-4.32-4.4-5.94a9.45,9.45,0,0,0-1.12-1.19,4.66,4.66,0,0,0-2.92-1.27H308.4s.15,0,1,.73,2.14,2.06,3.34,3.33c1.8,1.9,3.71,4.31,4.93,5.9.46.61.82,1.09,1,1.4a.58.58,0,0,0,.13.11.29.29,0,0,0,.39-.06,1.4,1.4,0,0,0,.17-.24l1.42-2.25a.22.22,0,0,0,0-.06h0" transform="translate(-308.4 -236.83)"/><g class="cls-3"><rect class="cls-4" x="8.69" y="2.13" width="7.64" height="9.99"/></g><path class="cls-5" d="M323.34,243.8a25.48,25.48,0,0,0-1.92,2.69l.1-.21s.4-1.09,1.4-3.1l-.31-.43a25,25,0,0,0-1.3,3.18l-.07.19.05-.21c.67-2.85,1-3.66,1-3.66h0l-.35-.52-.79,3.5s0-1.11.09-4.44c-.06-.11-.22-.34-.27-.42h0c0,.08-.2.31-.26.42.11,3.33.1,4.44.1,4.44l-.8-3.5-.35.51h0s.29.81,1,3.67l.05.21-.07-.19a25,25,0,0,0-1.31-3.18l-.31.43a31.25,31.25,0,0,1,1.4,3.1l.1.21a26.79,26.79,0,0,0-1.91-2.69l-.24.34c.14.18,1.51,1.89,2.65,3.57h0c1.15-1.68,2.52-3.38,2.66-3.57l-.24-.34" transform="translate(-308.4 -236.83)"/></svg>