<svg id="Layer_1" data-name="Layer 1" xmlns="http://www.w3.org/2000/svg" viewBox="0 0 23.08 25"><defs><style>.cls-1{fill:red;}</style></defs><path class="cls-1" d="M314.44,342.5l.28-5.35a.59.59,0,0,0-.56-.62H314l-5.33.94.72-2a.4.4,0,0,0-.12-.45l-5.84-4.73,1.32-.61a.41.41,0,0,0,.21-.49l-1.16-3.55,3.37.71a.41.41,0,0,0,.45-.23l.65-1.54,2.62,2.82a.4.4,0,0,0,.57,0,.38.38,0,0,0,.12-.36l-1.26-6.53,2,1.17a.4.4,0,0,0,.55-.14v0l2.06-4,2.06,4a.4.4,0,0,0,.54.18h0l2-1.17-1.26,6.53a.41.41,0,0,0,.32.47.43.43,0,0,0,.37-.12l2.62-2.82.65,1.54a.41.41,0,0,0,.45.23l3.37-.71L325,329.21a.41.41,0,0,0,.21.49l1.32.61L320.7,335a.4.4,0,0,0-.12.45l.72,2-5.33-.94a.58.58,0,0,0-.68.48.53.53,0,0,0,0,.13l.28,5.35Z" transform="translate(-303.46 -317.5)"/></svg>