<svg id="Layer_1" data-name="Layer 1" xmlns="http://www.w3.org/2000/svg" viewBox="0 0 25 23.27"><defs><style>.cls-1{isolation:isolate;}.cls-2{fill:#010101;}</style></defs><g class="cls-1"><path class="cls-2" d="M307.47,386.19a.43.43,0,0,0,0-.13.33.33,0,0,0-.09-.24,1,1,0,0,0-.74-.34.93.93,0,0,0-.78.72.51.51,0,0,0,.58.61A1.67,1.67,0,0,0,307.47,386.19Z" transform="translate(-304.72 -375.36)"/><path class="cls-2" d="M311.19,385.69c0-.22-.22-.41-.77-.61-1.65-.59-2.62-2.07-2.94-4.32v0h0c-.08-.08-.18-.15-.28-.06s-.08,1,.44,3.17l.2.86a3.4,3.4,0,0,1,.09,1.28,4.84,4.84,0,0,1-.46,1.34l-.48,1c-1.28,2.58-1.71,3.54-1.53,3.71s.22,0,.33-.12l0,0v0a14.17,14.17,0,0,1,1.13-2.24,8.3,8.3,0,0,1,3.32-3.15,2.24,2.24,0,0,0,.89-.62A.27.27,0,0,0,311.19,385.69Z" transform="translate(-304.72 -375.36)"/><path class="cls-2" d="M322.58,381.2h.06A.76.76,0,0,0,323,381a.13.13,0,0,0,0-.1c0-.32-1.18-.36-4.26-.31l-1.1,0a3.34,3.34,0,0,1-1.36-.21,2.62,2.62,0,0,1-.94-.78l-.55-.69c-1.37-1.74-1.88-2.3-2.14-2.15l-.07.07a.45.45,0,0,0,0,.28v0h0a5.63,5.63,0,0,1,1.57,5.52c-.17.69-.16,1,0,1.14s.53-.1,1.11-.59A9.85,9.85,0,0,1,322.58,381.2Z" transform="translate(-304.72 -375.36)"/><path class="cls-2" d="M317.62,378.13a1,1,0,0,0-1.08.53c-.25.4-.29,1.17-.06,1.27s1-.38,1.26-.79S318,378.26,317.62,378.13Z" transform="translate(-304.72 -375.36)"/><path class="cls-2" d="M313.38,392.67l.77-.95a4.76,4.76,0,0,1,1.19-1.11,4.43,4.43,0,0,1,1.52-.51l1.19-.19c3.31-.53,4.55-.8,4.6-1.16,0-.17-.17-.25-.35-.3h-.06c-3.3.84-5.78.52-7.45-.85-.51-.42-.84-.55-1-.42a.29.29,0,0,0-.11.11,2.21,2.21,0,0,0-.15,1.13,8.53,8.53,0,0,1-1.45,4.81,13.89,13.89,0,0,1-1.67,2.15l0,0a0,0,0,0,0,0,0c0,.16-.09.37,0,.44S311.37,395.17,313.38,392.67Z" transform="translate(-304.72 -375.36)"/><path class="cls-2" d="M315.42,392.54a.88.88,0,0,0,.55.5.69.69,0,0,0,.56-.06.84.84,0,0,0,.37-.47,1.11,1.11,0,0,0-.06-.8c-.21-.44-1-.86-1.23-.7a.29.29,0,0,0-.11.11,2,2,0,0,0-.09.2A2,2,0,0,0,315.42,392.54Z" transform="translate(-304.72 -375.36)"/></g><g class="cls-1"><path class="cls-2" d="M329.67,384.25a.09.09,0,0,0,0-.16c-.22-.13-5.05-3.07-9.12-2a.11.11,0,0,0-.07.06l0,0a.09.09,0,0,0,.08.09,15.21,15.21,0,0,1,6.08,2.09l.13.07-.13.1a19.78,19.78,0,0,1-6.32,3.25.12.12,0,0,0-.09.11.08.08,0,0,0,.09.09C324.48,388.35,329.45,384.43,329.67,384.25Z" transform="translate(-304.72 -375.36)"/><path class="cls-2" d="M312.66,378.64a.11.11,0,0,0,0-.11c-.8-2.56-4.19-3.14-4.32-3.17l-.06,0s0,0,0,.06-1.23,4.12.14,6.17a.06.06,0,0,0,.09,0,.09.09,0,0,0,.05-.1,12.29,12.29,0,0,1,.36-4.72l0-.1.08,0a7.43,7.43,0,0,1,3.52,1.92A.08.08,0,0,0,312.66,378.64Z" transform="translate(-304.72 -375.36)"/><path class="cls-2" d="M310.93,393.41a.11.11,0,0,0,0-.12h0a.07.07,0,0,0-.11,0,14.52,14.52,0,0,1-4.72,3.29l-.1,0v-.13a18.27,18.27,0,0,1,1.17-5.77.09.09,0,0,0,0-.11.07.07,0,0,0-.1,0c-2.18,2.73-2.31,7.67-2.31,7.89a.08.08,0,0,0,0,.07,0,0,0,0,0,.06,0C305,398.57,309.29,397,310.93,393.41Z" transform="translate(-304.72 -375.36)"/></g></svg>